/* XPM */
static char * torch_frame_3_xpm[] = {
"64 64 9 1",
" 	c #000000",
".	c #F4B41B",
"+	c #38D973",
"@	c #7A444A",
"#	c #3CACD7",
"$	c #E6492E",
"%	c #BF7958",
"&	c #CFC6B8",
"*	c #472D3C",
"****************************************************************",
"****************************************************************",
"****************************************************************",
"****************************************************************",
"********************************....****************************",
"********************************....****************************",
"********************************....****************************",
"********************************....****************************",
"****************************....********************************",
"****************************....********************************",
"****************************....********************************",
"****************************....********************************",
"****************************........****************************",
"****************************........****************************",
"****************************........****************************",
"****************************........****************************",
"************************................************************",
"************************................************************",
"************************................************************",
"************************................************************",
"************************....********....************************",
"************************....********....************************",
"************************....********....************************",
"************************....********....************************",
"****************************************************************",
"****************************************************************",
"****************************************************************",
"****************************************************************",
"************************................************************",
"************************................************************",
"************************................************************",
"************************................************************",
"****************************************************************",
"****************************************************************",
"****************************************************************",
"****************************************************************",
"****************************....********************************",
"****************************....********************************",
"****************************....********************************",
"****************************....********************************",
"********************************....****************************",
"********************************....****************************",
"********************************....****************************",
"********************************....****************************",
"********************....****....********....********************",
"********************....****....********....********************",
"********************....****....********....********************",
"********************....****....********....********************",
"********************....********....****....********************",
"********************....********....****....********************",
"********************....********....****....********************",
"********************....********....****....********************",
"********************....****************....********************",
"********************....****************....********************",
"********************....****************....********************",
"********************....****************....********************",
"************************................************************",
"************************................************************",
"************************................************************",
"************************................************************",
"****************************************************************",
"****************************************************************",
"****************************************************************",
"****************************************************************"};
