/* XPM */
static char *collectable_2[] = {
/* columns rows colors chars-per-pixel */
"64 64 14 1 ",
"  c #442B3C",
". c #462C3C",
"X c #472D3C",
"o c #492F3C",
"O c #583A39",
"+ c #593B39",
"@ c #5A3C38",
"# c #694736",
"$ c #E1A51F",
"% c #E2A61E",
"& c #F5B51B",
"* c #F7B61B",
"= c #D29A21",
"- c #D09822",
/* pixels */
"XXXXXXXXXXXXXXXXXXXXXXXXXXXXXXXXXXXXXXXXXXXXXXXXXXXXXXXXXXXXXXXX",
"XXXXXXXXXXXXXXXXXXXXXXXXXXXXXXXXXXXXXXXXXXXXXXXXXXXXXXXXXXXXXXXX",
"XXXXXXXXXXXXXXXXXXXXXXXXXXXXXXXXXXXXXXXXXXXXXXXXXXXXXXXXXXXXXXXX",
"XXXXXXXXXXXXXXXXXXXXXXXXXXXXXXXXXXXXXXXXXXXXXXXXXXXXXXXXXXXXXXXX",
"XXXXXXXXXXXXXXXXXXXXXXXXXXXXXXXXXXXXXXXXXXXXXXXXXXXXXXXXXXXXXXXX",
"XXXXXXXXXXXXXXXXXXXXXXXXXXXXXXXXXXXXXXXXXXXXXXXXXXXXXXXXXXXXXXXX",
"XXXXXXXXXXXXXXXXXXXXXXXXXXXXXXXXXXXXXXXXXXXXXXXXXXXXXXXXXXXXXXXX",
"XXXXXXXXXXXXXXXXXXXXXXXXXXXXXXXXXXXXXXXXXXXXXXXXXXXXXXXXXXXXXXXX",
"XXXXXXXXXXXXXXXXXXXXXXXXXXXXXXXXXXXXXXXXXXXXXXXXXXXXXXXXXXXXXXXX",
"XXXXXXXXXXXXXXXXXXXXXXXXXXXXXXXXXXXXXXXXXXXXXXXXXXXXXXXXXXXXXXXX",
"XXXXXXXXXXXXXXXXXXXXXXXXXXXXXXXXXXXXXXXXXXXXXXXXXXXXXXXXXXXXXXXX",
"XXXXXXXXXXXXXXXXXXXXXXXoO@@@@@@@@@@@@@@OoXXXXXXXXXXXXXXXXXXXXXXX",
"XXXXXXXXXXXXXXXXXXXXXXXO-$$$$$$$$$$$$$$-OXXXXXXXXXXXXXXXXXXXXXXX",
"XXXXXXXXXXXXXXXXXXXXXXX@$&&&&&&&&&&&&&&$@XXXXXXXXXXXXXXXXXXXXXXX",
"XXXXXXXXXXXXXXXXXXXXXX O$&&&&&&&&&&&&&&$O XXXXXXXXXXXXXXXXXXXXXX",
"XXXXXXXXXXXXXXXoO@@@@@O#-$$$$$$$$$$$$$$-#O@@@@@OoXXXXXXXXXXXXXXX",
"XXXXXXXXXXXXXXXO-$$$$$$-#O@@@@@@@@@@@@O#-$$$$$$-OXXXXXXXXXXXXXXX",
"XXXXXXXXXXXXXXX@$&&&&&&$O XXXXXXXXXXXX O$&&&&&&$@XXXXXXXXXXXXXXX",
"XXXXXXXXXXXXXX O$&&&&&&$@XXXXXXXXXXXXXX@$&&&&&&$O XXXXXXXXXXXXXX",
"XXXXXXXXXXXoO@O#-$$$$$$-OXXXXXXXXXXXXXXO-$$$$$$-#O@OoXXXXXXXXXXX",
"XXXXXXXXXXXO-$$-#O@@@@@OoXXXXXXXXXXXXXXoO@@@@@O#-$$-OXXXXXXXXXXX",
"XXXXXXXXXXX@$&&$O XXXXXXXXXXXXXXXXXXXXXXXXXXXX O$&&$@XXXXXXXXXXX",
"XXXXXXXXXX O$&&$@XXXXXXXXXXXXXXXXXXXXXXXXXXXXXX@$&&$O XXXXXXXXXX",
"XXXXXXXoO@O#-$$-OXXXXXXXXXXXXXXXXXXXXXXXXXXXXXXO-$$-#O@OoXXXXXXX",
"XXXXXXXO-$$-#O@OoXXXXXXXXXXXXXXXXXXXXXXXXXXXXXXoO@O#-$$-OXXXXXXX",
"XXXXXXX@$&&$O XXXXXXXXXXXXXXXXXXXXXXXXXXXXXXXXXXXX O$&&$@XXXXXXX",
"XXXXXXX@$&&$@XXXXXXXXXXXXXXXXXXXXXXXXXXXXXXXXXXXXXX@$&&$@XXXXXXX",
"XXXXXXX@$&&$@XXXXXXXXXXXXXXXXXXXXXXXXXXXXXXXXXXXXXX@$&&$@XXXXXXX",
"XXXXXXX@$&&$@XXXXXXXXXXXXXXXXXXXXXXXXXXXXXXXXXXXXXX@$&&$@XXXXXXX",
"XXXXXXX@$&&$@XXXXXXXXXXXXXXXXXXXXXXXXXXXXXXXXXXXXXX@$&&$@XXXXXXX",
"XXXXXXX@$&&$O XXXXXXXXXXXXXXXXXXXXXXXXXXXXXXXXXXXX O$&&$@XXXXXXX",
"XXXXXXXO-$$-#O@OoXXXXXXXXXXXXXXXXXXXXXXXXXXXXXXoO@O#-$$-OXXXXXXX",
"XXXXXXXoO@O#-$$-OXXXXXXXXXXXXXXXXXXXXXXXXXXXXXXO-$$-#O@OoXXXXXXX",
"XXXXXXXXXX O$&&$@XXXXXXXXXXXXXXXXXXXXXXXXXXXXXX@$&&$O XXXXXXXXXX",
"XXXXXXXXXXX@$&&$O XXXXXXXXXXXXXXXXXXXXXXXXXXXX O$&&$@XXXXXXXXXXX",
"XXXXXXXXXXXO-$$-#O@@@@@OoXXoO@@@@@@OoXXoO@@@@@O#-$$-OXXXXXXXXXXX",
"XXXXXXXXXXXoO@O#-$$$$$$-OXXO-$$$$$$-OXXO-$$$$$$-#O@OoXXXXXXXXXXX",
"XXXXXXXXXXXXXX O$&&&&&&$@XX@$&&&&&&$@XX@$&&&&&&$O XXXXXXXXXXXXXX",
"XXXXXXXXXXXXXXX@$&&&&&&$O  O$&&&&&&$O  O$&&&&&&$@XXXXXXXXXXXXXXX",
"XXXXXXXXXXXXXXXO-$$$$$$-#OO#-$$$$$$-#OO#-$$$$$$-OXXXXXXXXXXXXXXX",
"XXXXXXXXXXXXXXXoO@@@@@O#-$$-#O@@@@O#-$$-#O@@@@@OoXXXXXXXXXXXXXXX",
"XXXXXXXXXXXXXXXXXXXXXX O$&&$O XXXX O$&&$O XXXXXXXXXXXXXXXXXXXXXX",
"XXXXXXXXXXXXXXXXXXXXXXX@$&&$@XXXXXX@$&&$@XXXXXXXXXXXXXXXXXXXXXXX",
"XXXXXXXXXXXXXXXXXXXXXXX@$&&$@XXXXXX@$&&$@XXXXXXXXXXXXXXXXXXXXXXX",
"XXXXXXXXXXXXXXXXXXXXXXX@$&&$@XXXXXX@$&&$@XXXXXXXXXXXXXXXXXXXXXXX",
"XXXXXXXXXXXXXXXXXXXXXXX@$&&$@XXXXXX@$&&$@XXXXXXXXXXXXXXXXXXXXXXX",
"XXXXXXXXXXXXXXXXXXXXXXX@$&&$O XXXX O$&&$@XXXXXXXXXXXXXXXXXXXXXXX",
"XXXXXXXXXXXXXXXXXXXXXXXO-$$-#O@@@@O#-$$-OXXXXXXXXXXXXXXXXXXXXXXX",
"XXXXXXXXXXXXXXXXXXXXXXXoO@O#-$$$$$$-#O@OoXXXXXXXXXXXXXXXXXXXXXXX",
"XXXXXXXXXXXXXXXXXXXXXXXXXX O$&&&&&&$O XXXXXXXXXXXXXXXXXXXXXXXXXX",
"XXXXXXXXXXXXXXXXXXXXXXXXXXX@$&&&&&&$@XXXXXXXXXXXXXXXXXXXXXXXXXXX",
"XXXXXXXXXXXXXXXXXXXXXXXXXXXO-$$$$$$-OXXXXXXXXXXXXXXXXXXXXXXXXXXX",
"XXXXXXXXXXXXXXXXXXXXXXXXXXXoO@@@@@@OoXXXXXXXXXXXXXXXXXXXXXXXXXXX",
"XXXXXXXXXXXXXXXXXXXXXXXXXXXXXXXXXXXXXXXXXXXXXXXXXXXXXXXXXXXXXXXX",
"XXXXXXXXXXXXXXXXXXXXXXXXXXXXXXXXXXXXXXXXXXXXXXXXXXXXXXXXXXXXXXXX",
"XXXXXXXXXXXXXXXXXXXXXXXXXXXXXXXXXXXXXXXXXXXXXXXXXXXXXXXXXXXXXXXX",
"XXXXXXXXXXXXXXXXXXXXXXXXXXXXXXXXXXXXXXXXXXXXXXXXXXXXXXXXXXXXXXXX",
"XXXXXXXXXXXXXXXXXXXXXXXXXXXXXXXXXXXXXXXXXXXXXXXXXXXXXXXXXXXXXXXX",
"XXXXXXXXXXXXXXXXXXXXXXXXXXXXXXXXXXXXXXXXXXXXXXXXXXXXXXXXXXXXXXXX",
"XXXXXXXXXXXXXXXXXXXXXXXXXXXXXXXXXXXXXXXXXXXXXXXXXXXXXXXXXXXXXXXX",
"XXXXXXXXXXXXXXXXXXXXXXXXXXXXXXXXXXXXXXXXXXXXXXXXXXXXXXXXXXXXXXXX",
"XXXXXXXXXXXXXXXXXXXXXXXXXXXXXXXXXXXXXXXXXXXXXXXXXXXXXXXXXXXXXXXX",
"XXXXXXXXXXXXXXXXXXXXXXXXXXXXXXXXXXXXXXXXXXXXXXXXXXXXXXXXXXXXXXXX",
"XXXXXXXXXXXXXXXXXXXXXXXXXXXXXXXXXXXXXXXXXXXXXXXXXXXXXXXXXXXXXXXX"
};
