/* XPM */
static char *collectable_1[] = {
/* columns rows colors chars-per-pixel */
"64 64 18 1 ",
"  c #442B3C",
". c #462C3C",
"X c #472D3C",
"o c #492F3C",
"O c #583A39",
"+ c #593B39",
"@ c #5A3C38",
"# c #694736",
"$ c #6B4935",
"% c #E1A51F",
"& c #E2A61E",
"* c #E3A71E",
"= c #F2B21B",
"- c #F4B41B",
"; c #F5B51B",
": c #F7B61B",
"> c #D29A21",
", c #D09822",
/* pixels */
"XXXXXXXXXXXXXXXXXXXXXXXXXXXXXXXXXXXXXXXXXXXXXXXXXXXXXXXXXXXXXXXX",
"XXXXXXXXXXXXXXXXXXXXXXXXXXXXXXXXXXXXXXXXXXXXXXXXXXXXXXXXXXXXXXXX",
"XXXXXXXXXXXXXXXXXXXXXXXXXXXXXXXXXXXXXXXXXXXXXXXXXXXXXXXXXXXXXXXX",
"XXXXXXXXXXXXXXXXXXXXXXXXXXXXXXXXXXXXXXXXXXXXXXXXXXXXXXXXXXXXXXXX",
"XXXXXXXXXXXXXXXXXXXXXXXXXXXXXXXXXXXXXXXXXXXXXXXXXXXXXXXXXXXXXXXX",
"XXXXXXXXXXXXXXXXXXXXXXXXXXXXXXXXXXXXXXXXXXXXXXXXXXXXXXXXXXXXXXXX",
"XXXXXXXXXXXXXXXXXXXXXXXXXXXXXXXXXXXXXXXXXXXXXXXXXXXXXXXXXXXXXXXX",
"XXXXXXXXXXXXXXXXXXXXXXXoO@@@@@@@@@@@@@OOoXXXXXXXXXXXXXXXXXXXXXXX",
"XXXXXXXXXXXXXXXXXXXXXXXO,&&&&&&&&&&&&&&,OXXXXXXXXXXXXXXXXXXXXXXX",
"XXXXXXXXXXXXXXXXXXXXXXX@&::::::::::::::&@XXXXXXXXXXXXXXXXXXXXXXX",
"XXXXXXXXXXXXXXXXXXXXXX O&::::::::::::::&O XXXXXXXXXXXXXXXXXXXXXX",
"XXXXXXXXXXXXXXXoO@@@@@O#,&&&&&&&&&&&&&&,#O@@@@@OoXXXXXXXXXXXXXXX",
"XXXXXXXXXXXXXXXO,&&&&&&,#OO@OOOO@@@@@@O#,&&&&&&,OXXXXXXXXXXXXXXX",
"XXXXXXXXXXXXXXX@&::::::&O XXXXXXXXXXXX O&::::::&@XXXXXXXXXXXXXXX",
"XXXXXXXXXXXXXX O&::::::&@XXXXXXXXXXXXXX@&::::::&O XXXXXXXXXXXXXX",
"XXXXXXXXXXXoO@O#,&&&&&&,OXXoO@OO@@@OoXXO,&&&&&&,#O@OoXXXXXXXXXXX",
"XXXXXXXXXXXO,&&,#OOOOO@OoXXO,&&&&&&,OXXoO@@@@@O#,&&,OXXXXXXXXXXX",
"XXXXXXXXXXX@&::&O XXX XXXXX@&::::::&@XXXXXXXXX O&::&@XXXXXXXXXXX",
"XXXXXXXXXXX@&::&@XXXX XXXX O&:::==:&O XXXXXXXXX@&::&@XXXXXXXXXXX",
"XXXXXXXXXXX@&::&@XXoOOOO@@O$&:::==:&$OOO@@@OoXX@&::&@XXXXXXXXXXX",
"XXXXXXXXXXX@&::&@XXO,&&&&&&&=:--:::=&&&&&&&,OXX@&::&@XXXXXXXXXXX",
"XXXXXXXXXXX@&::&@XX@&:::::::::==:::::::::::&O X@&::&@XXXXXXXXXXX",
"XXXXXXXXXX O&::&@XX@&:::--::::::::::==--:::&OXX@&::&O XXXXXXXXXX",
"XXXXXXXoO@O#,&&,OXX@&::::::=&&&&&&&&=--::::&OXXO,&&,#O@OoXXXXXXX",
"XXXXXXXO,&&,#O@OoX O&:::-=:&$OOO@@O$&::::::&@XXoO@O#,&&,OXXXXXXX",
"XXXXXXX@&::&O XXXXXO&:::--:&O XXXX O&::::::&@XXXXX O&::&@XXXXXXX",
"XXXXXXX@&::&OXXXXX O&::::-:&@XXXXXX@&::::::&O XXXXX@&::&@XXXXXXX",
"XXXXXXX@&::&OXXoO@O$&::::-:&@XXXXXX@&::::::&$OOOoXX@&::&@XXXXXXX",
"XXXXXXX@&::&OXXO,&&&=--::::&@XXXXXX@&::::=-=&&&,OXXO&::&@XXXXXXX",
"XXXXXXX@&::&O  O&:::-=:::::&@XXXXXX@&:::-==-:::&@XXO&::&@XXXXXXX",
"XXXXXXX@&::&OXXO&:::==--:::&@XXXXX O&:::::==:::&OXXO&::&@XXXXXXX",
"XXXXXXX@&::&@XX@&:::==--:::&@XXXXX O&::::-==:::&@XXO&::&@XXXXXXX",
"XXXXXXX@&::&OXXO&:::::==-::&@XXXXXX@&:=:::==-::&@XX@&::&OXXXXXXX",
"XXXXXXX@&::&OXXO&:::::==-::&@XXXXXX@&:=--:::-::&@XX@&::&OXXXXXXX",
"XXXXXXX@&::&@XX@&::::-==:::&@XXXXXX@&:-----::::&@XX@&::&@XXXXXXX",
"XXXXXXX@&::&@XXO,&&&=:==:::&@XXXXXX@&:----:=&&&,OXX@&::&@XXXXXXX",
"XXXXXXX@&::&@XXoOOO$&:-:--:&OXXXXXX@&::::::&$OOOoXX@&::&@XXXXXXX",
"XXXXXXX@&::&@XXXXX O&:-:-=:&OXXXXXX@&::::::&O XXXXX@&::&OXXXXXXX",
"XXXXXXX@&::&O XXXX O&::::::&O XXXX O&::::::&@XXXXX O&::&@XXXXXXX",
"XXXXXXXO,&&,#O@OoX O&::::::&$OOO@@O$&::::::&@XXoO@O#,&&,OXXXXXXX",
"XXXXXXXoO@O#,&&,OXX@&::::::=&&&&&&&&=:::--:&OXXO,&&,#O@OoXXXXXXX",
"XXXXXXXXXX O&::&@XX@&:::::::::::::::::::--:&OXXO&::&O XXXXXXXXXX",
"XXXXXXXXXXX@&::&@XX@&:::::::==::::=-:::::::&@XXO&::&OXXXXXXXXXXX",
"XXXXXXXXXXX@&::&@XXO,&&&&&&&==::::-=&&&&&&&,OXXO&::&OXXXXXXXXXXX",
"XXXXXXXXXXX@&::&@XXoO@@@OOO$&::::-:&$O@@@@@OoXX@&::&@XXXXXXXXXXX",
"XXXXXXXXXXXO&::&@XXXXXXX   O&::::::&O XXXXXXXXX@&::&@XXXXXXXXXXX",
"XXXXXXXXXXX@&::&O XXXXXXXX O&::::::&@XXXXXXXXX O&::&@XXXXXXXXXXX",
"XXXXXXXXXXXO,&&,#OO@@@@OoXXO,&&&&&&,OXXoO@@@@@O#,&&,OXXXXXXXXXXX",
"XXXXXXXXXXXoO@O#,&&&&&&,OXXoO@@@OO@OoXXO,&&&&&&,#O@OoXXXXXXXXXXX",
"XXXXXXXXXXXXXX O&::::::&@XXXXXXXXXXXXXX@&::::::&O XXXXXXXXXXXXXX",
"XXXXXXXXXXXXXXX@&::::::&O XXXXXXXXXXXX O&::::::&@XXXXXXXXXXXXXXX",
"XXXXXXXXXXXXXXXO,&&&&&&,#O@O@@@@OOOO@@O#,&&&&&&,OXXXXXXXXXXXXXXX",
"XXXXXXXXXXXXXXXoO@@@O@O#,&&&&&&&&&&&&&&,#O@@@@@OoXXXXXXXXXXXXXXX",
"XXXXXXXXXXXXXXXXXXXXXX O&::::::::::::::&O XXXXXXXXXXXXXXXXXXXXXX",
"XXXXXXXXXXXXXXXXXXXXXXX@&::::::::::::::&@XXXXXXXXXXXXXXXXXXXXXXX",
"XXXXXXXXXXXXXXXXXXXXXXXO,&&&&&&&&&&&&&&,OXXXXXXXXXXXXXXXXXXXXXXX",
"XXXXXXXXXXXXXXXXXXXXXXXoO@@@@@@@OOOO@@@OoXXXXXXXXXXXXXXXXXXXXXXX",
"XXXXXXXXXXXXXXXXXXXXXXXXXXXXXXXXXXXXXXXXXXXXXXXXXXXXXXXXXXXXXXXX",
"XXXXXXXXXXXXXXXXXXXXXXXXXXXXXXXXXXXXXXXXXXXXXXXXXXXXXXXXXXXXXXXX",
"XXXXXXXXXXXXXXXXXXXXXXXXXXXXXXXXXXXXXXXXXXXXXXXXXXXXXXXXXXXXXXXX",
"XXXXXXXXXXXXXXXXXXXXXXXXXXXXXXXXXXXXXXXXXXXXXXXXXXXXXXXXXXXXXXXX",
"XXXXXXXXXXXXXXXXXXXXXXXXXXXXXXXXXXXXXXXXXXXXXXXXXXXXXXXXXXXXXXXX",
"XXXXXXXXXXXXXXXXXXXXXXXXXXXXXXXXXXXXXXXXXXXXXXXXXXXXXXXXXXXXXXXX",
"XXXXXXXXXXXXXXXXXXXXXXXXXXXXXXXXXXXXXXXXXXXXXXXXXXXXXXXXXXXXXXXX"
};
