/* XPM */
static char *collectable_3[] = {
/* columns rows colors chars-per-pixel */
"64 64 18 1 ",
"  c #442B3C",
". c #462C3C",
"X c #472D3C",
"o c #492F3C",
"O c #583A39",
"+ c #593B39",
"@ c #5A3C38",
"# c #694736",
"$ c #6B4935",
"% c #E1A51F",
"& c #E2A61E",
"* c #E3A71E",
"= c #F2B21B",
"- c #F4B41B",
"; c #F5B51B",
": c #F7B61B",
"> c #D29A21",
", c #D09822",
/* pixels */
"XXXXXXXXXXXXXXXXXXXXXXXXXXXXXXXXXXXXXXXXXXXXXXXXXXXXXXXXXXXXXXXX",
"XXXXXXXXXXXXXXXXXXXXXXXXXXXXXXXXXXXXXXXXXXXXXXXXXXXXXXXXXXXXXXXX",
"XXXXXXXXXXXXXXXXXXXXXXXXXXXXXXXXXXXXXXXXXXXXXXXXXXXXXXXXXXXXXXXX",
"XXXXXXXXXXXXXXXXXXXXXXXXXXXXXXXXXXXXXXXXXXXXXXXXXXXXXXXXXXXXXXXX",
"XXXXXXXXXXXXXXXXXXXXXXXXXXXXXXXXXXXXXXXXXXXXXXXXXXXXXXXXXXXXXXXX",
"XXXXXXXXXXXXXXXXXXXXXXXXXXXXXXXXXXXXXXXXXXXXXXXXXXXXXXXXXXXXXXXX",
"XXXXXXXXXXXXXXXXXXXXXXXXXXXXXXXXXXXXXXXXXXXXXXXXXXXXXXXXXXXXXXXX",
"XXXXXXXXXXXXXXXXXXXXXXXXXXXoO@@@@@@OoXXXXXXXXXXXXXXXXXXXXXXXXXXX",
"XXXXXXXXXXXXXXXXXXXXXXXXXXXO,&&&&&&,OXXXXXXXXXXXXXXXXXXXXXXXXXXX",
"XXXXXXXXXXXXXXXXXXXXXXXXXXX@&::::::&@XXXXXXXXXXXXXXXXXXXXXXXXXXX",
"XXXXXXXXXXXXXXXXXXXXXXXXXX O&:::==:&O XXXXXXXXXXXXXXXXXXXXXXXXXX",
"XXXXXXXXXXXXXXXXXXXXXXXoO@O$&:::==:&$O@OoXXXXXXXXXXXXXXXXXXXXXXX",
"XXXXXXXXXXXXXXXXXXXXXXXO,&&&=:--:-:=&&&,OXXXXXXXXXXXXXXXXXXXXXXX",
"XXXXXXXXXXXXXXXXXXXXXXX@&:::::==::-::::&@XXXXXXXXXXXXXXXXXXXXXXX",
"XXXXXXXXXXXXXXXXXXXXXXX@&:::::==:::::::&@XXXXXXXXXXXXXXXXXXXXXXX",
"XXXXXXXoO@@OoXXXXXXXXXXO,&&&=::-:::=&&&,OXXXXXXXXXXoO@@OoXXXXXXX",
"XXXXXXXO,&&,OXXXXXXXXXXoO@O$&:::-::&$O@OoXXXXXXXXXXO,&&,OXXXXXXX",
"XXXXXXX@&::&@XXXXXXXXXXXXX O&:::==:&O XXXXXXXXXXXXX@&::&@XXXXXXX",
"XXXXXXXO&::&O XXXXXXXXXXXXX@&:::==:&@XXXXXXXXXXXXX O&::&@XXXXXXX",
"XXXXXXX@&::&$O@OoXXXXXXXXXX@&:::==:&@XXXXXXXXXXoO@O$&::&@XXXXXXX",
"XXXXXXX@&::=&&&,OXXXXXXXXXX@&:==:::&OXXXXXXXXXXO,&&&=::&@XXXXXXX",
"XXXXXXX@&::::::&@XXXXXXXXXX@&:==:::&@XXXXXXXXXX@&::::::&@XXXXXXX",
"XXXXXXXO&::::::&@XXXXXXXXX O&:==:::&O XXXXXXXXX@&::::::&@XXXXXXX",
"XXXXXXXO&::=&&&,OXXXXXXoO@O$&::-:::&$OOOoXXXXXXO,&&&=::&@XXXXXXX",
"XXXXXXX@&::&$O@OoXXXXXXO,&&&=:--:::=&&&,OXXXXXXoO@O$&::&@XXXXXXX",
"XXXXXXX@&::&O XXXXXXXXX@&:::::--:::::::&@XXXXXXXXX O&::&@XXXXXXX",
"XXXXXXX@&::&O XXXXXXXXX@&::::::::::::=:&@XXXXXXXXX O&::&@XXXXXXX",
"XXXXXXX@&::&$O@OoXXXXXX@&::=&&&&&&&&=-:&@XXXXXXoO@O$&::&@XXXXXXX",
"XXXXXXX@&:==&&&,OXXXXXX@&::&$OOO@OO$&::&@XXXXXXO,&&&=::&@XXXXXXX",
"XXXXXXX@&:==:::&@XXXXXX@&::&O XXXX O&::&@XXXXXX@&::::::&@XXXXXXX",
"XXXXXXX@&::::::&O XXXX O&::&@XXXXXXO&::&O XXXX O&:=-:-:&@XXXXXXX",
"XXXXXXX@&::::::&$O@@OOO$&::&@XXXXXXO&::&$O@@@OO$&:==--:&@XXXXXXX",
"XXXXXXX@&:::---=&&&&&&&&=-:&OXXXXXX@&:==&&&&&&&&======:&@XXXXXXX",
"XXXXXXX@&:::--=-::::::::-=:&OXXXXXX@&:=-::::::::::====:&@XXXXXXX",
"XXXXXXX@&::::-====::::-=:::&O   XX O&:::::::--==:::--::&@XXXXXXX",
"XXXXXXX@&::::-==-:::::--:::&$OOO@@O$&:::::::---=::::-::&@XXXXXXX",
"XXXXXXX@&:-=::::::::::::::-=&&&&&&&&=-::::==-:::-::::::&@XXXXXXX",
"XXXXXXX@&:-=::::::::::::-:==::::::::==:::--=::::==:::::&@XXXXXXX",
"XXXXXXX@&:::==::--==-=::---=::::::::==-:::==--::==:::::&@XXXXXXX",
"XXXXXXXO,&&&=--:-=====::----::::::::==-:::===:::--:=&&&,OXXXXXXX",
"XXXXXXXoO@O$&::::::::-::::::====::::=-::::=--::::::&$O@OoXXXXXXX",
"XXXXXXXXXX O&:::::::---==:::-===:::-=:::::==-::::::&O XXXXXXXXXX",
"XXXXXXXXXX O&:::::::-=====::-:-=::-===-::===:::::::&O XXXXXXXXXX",
"XXXXXXXoO@O#,&&&&&&&=-====::::--::--==-::-==&&&&&&&,#OOOoXXXXXXX",
"XXXXXXXO,&&,#OOO@@O$&:--=---:::::-==--:::::&$OOO@@O#,&&,OXXXXXXX",
"XXXXXXX@&::&O XXXX O&:-:==:::::::-==-=:::::&O XXXX O&::&@XXXXXXX",
"XXXXXXX@&::&O XXXX O&::::::::::::::::::::::&O XXXX O&::&@XXXXXXX",
"XXXXXXXO,&&,#O@@@OO#,&&&&&&&&&&&&&&&&&&&&&&,#OOO@@O#,&&,OXXXXXXX",
"XXXXXXXoO@O#,&&&&&&,#OO@OOO@@@@@O@O@@O@@@@O#,&&&&&&,#O@OoXXXXXXX",
"XXXXXXXXXX O&::::::&O XXXXXXXXXXXXXXXXXXXX O&::::::&O XXXXXXXXXX",
"XXXXXXXXXXX@&::::::&O XXXXXXXXXXXXXXXXXXXX O&::::::&@XXXXXXXXXXX",
"XXXXXXXXXXXO,&&&&&&,#O@@OOOO@O@@@@OO@@O@OOO#,&&&&&&,OXXXXXXXXXXX",
"XXXXXXXXXXXoO@@@@@O#,&&&&&&&&&&&&&&&&&&&&&&,#O@@@@@OoXXXXXXXXXXX",
"XXXXXXXXXXXXXXXXXX O&::::::::::::::::::::::&O XXXXXXXXXXXXXXXXXX",
"XXXXXXXXXXXXXXXXXXX@&::::::::::::::::::::::&@XXXXXXXXXXXXXXXXXXX",
"XXXXXXXXXXXXXXXXXXXO,&&&&&&&&&&&&&&&&&&&&&&,OXXXXXXXXXXXXXXXXXXX",
"XXXXXXXXXXXXXXXXXXXoO@@@@@@@@@@@OOOO@@@@@@@OoXXXXXXXXXXXXXXXXXXX",
"XXXXXXXXXXXXXXXXXXXXXXXXXXXXXXXXXXXXXXXXXXXXXXXXXXXXXXXXXXXXXXXX",
"XXXXXXXXXXXXXXXXXXXXXXXXXXXXXXXXXXXXXXXXXXXXXXXXXXXXXXXXXXXXXXXX",
"XXXXXXXXXXXXXXXXXXXXXXXXXXXXXXXXXXXXXXXXXXXXXXXXXXXXXXXXXXXXXXXX",
"XXXXXXXXXXXXXXXXXXXXXXXXXXXXXXXXXXXXXXXXXXXXXXXXXXXXXXXXXXXXXXXX",
"XXXXXXXXXXXXXXXXXXXXXXXXXXXXXXXXXXXXXXXXXXXXXXXXXXXXXXXXXXXXXXXX",
"XXXXXXXXXXXXXXXXXXXXXXXXXXXXXXXXXXXXXXXXXXXXXXXXXXXXXXXXXXXXXXXX",
"XXXXXXXXXXXXXXXXXXXXXXXXXXXXXXXXXXXXXXXXXXXXXXXXXXXXXXXXXXXXXXXX"
};
