/* XPM */
static char *floor_2[] = {
/* columns rows colors chars-per-pixel */
"64 64 12 1 ",
"  c #462D3C",
". c #472D3C",
"X c #482D3C",
"o c #4C2F3D",
"O c #4D303E",
"+ c #52323F",
"@ c #6F3F47",
"# c #744148",
"$ c #754249",
"% c #79444A",
"& c #7A444A",
"* c #7B444A",
/* pixels */
"................................................................",
"................................................................",
"................................................................",
"...........................XoOOoX...............................",
"...........................o@$$@o...............................",
"...........................o$**$O...............................",
"...........................o$**$O...............................",
"...................XoOOoX..o$**$O..XoOOoX.......................",
"...................o@$$@o..o$**$o..o@$$@o.......................",
"...................O$**$O..o$**$o..O$**$O.......................",
"...................O$**$O..O$**$O..O$**$O.......................",
".......XoOOoX......o@$$@o..o@$$@o..o@$$@o..............XoOOoX...",
".......o@$$@o......XoOOoX..XooooX..XoOOoX..............o@$$@o...",
".......O$**$o..........................................O$**$O...",
".......O$**$o..........................................O$**$O...",
".......O$**$+oooX......................................o@$$@o...",
".......O$***$$$@o.......................................oOOoX...",
".......O$******$O...............................................",
".......O$******$o...............................................",
".......o@$$$***$o..........XoOOOooooX..........XoOooooooX.......",
".......Xooo+$**$o..........o@$$$$$$@o..........o@$$$$$$@o.......",
"...........o$**$O..........o$******$o..........O$******$O.......",
"...........o$**$O..........o$******$o..........o$******$o.......",
"...........o@$$@o..........o$******$+oooX..XoOo+$******$o.......",
"...........XoOOoX..........O$*******$$$@o..o@$$$*******$O.......",
"...........................O$**********$o..o$**********$O.......",
"...........................O$**********$o..o$**********$O.......",
"...........................o@$$$*******$o..o$*******$$$@o.......",
"...........................Xooo+$******$o..o$******$+oooX.......",
"...............................o$******$o..o$******$o...........",
"...............................o$******$O..O$******$o...........",
"...XoOOoX......................o@$$$***$O..O$***$$$@o...........",
"...o@$$@o......................XoOo+$**$o..o$**$+oOoX...........",
"...O$**$O..........................o$**$o..o$**$o...............",
"...O$**$O..........................O$**$O..o$**$O...............",
"...o@$$@o..........................o@$$@o..o@$$@o...............",
"...XoOOoX..........................XoOOoX..XooooX...............",
"................................................................",
"................................................................",
".......................XoOOoX...................................",
".......................o@$$@o...................................",
".......................O$**$O...................................",
".......................o$**$O...................................",
".......XoOOoX......XoOo+$**$O...................................",
".......o@$$@o......o@$$$***$O...................................",
".......O$**$O......o$******$O...................................",
".......o$**$o......o$******$O...................................",
".......o$**$+oOoX..o$***$$$@o..................XoOOoX...........",
".......O$***$$$@o..o$**$+oOoX..................o@$$@o...........",
".......O$******$o..o$**$o......................O$**$o...........",
".......O$******$o..o$**$O......................O$**$o...........",
".......o@$$$***$o..o@$$@o......................O$**$+oooX.......",
".......Xooo+$**$O..XooooX......................O$***$$$@o.......",
"...........o$**$O..............................O$******$O.......",
"...........o$**$O..............................O$******$O.......",
"...........o@$$@o..............XoOOoX..........o@$$$***$O.......",
"...........XoOOoX..............o@$$@o..........Xooo+$**$o.......",
"...............................O$**$O..............o$**$o.......",
"...............................O$**$O..............o$**$O.......",
"...............................o@$$@o..............o@$$@o.......",
"...............................XoOOoX..............XoOOoX.......",
"................................................................",
"................................................................",
"................................................................"
};
