/* XPM */
static char *player[] = {
/* columns rows colors chars-per-pixel */
"64 64 84 1 ",
"  c #432939",
". c #442A39",
"X c #442A3A",
"o c #452A3A",
"O c #452B3A",
"+ c #462B3B",
"@ c #462C3B",
"# c #472D3C",
"$ c #482E3D",
"% c #49303E",
"& c #49303F",
"* c #4A303F",
"= c #4A313F",
"- c #4B313F",
"; c #4C3341",
": c #4E3543",
"> c #533B47",
", c #543C48",
"< c #563E4A",
"1 c #573E4A",
"2 c #573F4B",
"3 c #58404B",
"4 c #58404C",
"5 c #58414C",
"6 c #59414C",
"7 c #5B434E",
"8 c #5B444F",
"9 c #644E56",
"0 c #654F58",
"q c #67515A",
"w c #6C565D",
"e c #705B61",
"r c #705B62",
"t c #715C62",
"y c #715C63",
"u c #715D63",
"i c #725D63",
"p c #745F65",
"a c #786468",
"s c #7D6A6D",
"d c #887677",
"f c #998987",
"g c #9E8F8C",
"h c #A39490",
"j c #A49691",
"k c #A59691",
"l c #A59791",
"z c #A59792",
"x c #A69892",
"c c #A69893",
"v c #A79993",
"b c #AA9D97",
"n c #AFA29A",
"m c #B1A49C",
"M c #B2A69D",
"N c #BBAFA5",
"B c #BBB0A6",
"V c #BDB2A8",
"C c #BEB2A8",
"Z c #BEB3A8",
"A c #BEB3A9",
"S c #BFB4A9",
"D c #BFB5AA",
"F c #C0B5AA",
"G c #C2B7AC",
"H c #C3B9AD",
"J c #C8BEB1",
"K c #CAC0B3",
"L c #CBC2B4",
"P c #CBC2B5",
"I c #CCC2B5",
"U c #CDC3B5",
"Y c #CDC3B6",
"T c #CEC5B7",
"R c #CEC5B8",
"E c #CFC6B8",
"W c #D0C7B9",
"Q c #D0C8B9",
"! c #D1C8BA",
"~ c #D1C9BA",
"^ c #D2C9BA",
"/ c #D2C9BB",
"( c #D3CABB",
") c #D4CCBD",
/* pixels */
"################################################################",
"################################################################",
"###################@oooo###@oooooooo####oooo####################",
"##################@,ettw;#@,etttttt9$##;wtt9$###################",
"##################oeJIIN3@oeJIIIPPTh-#@6NITh-###################",
"##################otIWQV6@otIWEEEEQz;#@6VQQz;###################",
"##################otIEWV3o eIEEEEEQz-oo3VWQz;###################",
"##################otIEWFq3,sIEEEEEQb863qFWQz;###################",
"##################otIEEIFVVHEEEEEEEKVVVFIEQz-###################",
"##################otPEEEWWWWEEEEEEEEWWWWEEQz-###################",
"##################otTQQQQQQQQQQQQQQQQQQQQQ)x-###################",
"##################o9hzzzzzzzzzzzzzzzzzzzzzxd-###################",
"###################$---------;;;--------;;;-####################",
"###########################@###########@########################",
"####################@@@@@@@o@@@@@@@@@@@@@@@@####################",
"###################;36666666666666666666666>####################",
"##################owNVVVVVVVVVVVVVVVVVVVVVFf-###################",
"##################otIQWWWWWWWWWWWWWWWWWWWWQx-###################",
"##################otIWEEQQQQEEEEEEEWQQQQEEQz-###################",
"##################otIWEKbzzmTEEEEEWHxzzbKEQz-###################",
"##################otIEWV8-$pIEEEEEQx:--8VWQz;###################",
"##################otIEWV6@otIEEEEEQz-@@6VWQz;###################",
"##################otIQQV3o tIQWWWWQz-oo3SQQx;###################",
"##################owNVVm03,aBVVVVVSg6630mSFf-###################",
"###################;3630mVFg866666,aBVVm036>$###################",
"####################@@o3VQQx-@@@@@ tIQQS3o@@####################",
"###########@oooooooo##@6FQ)x-#####otTQQF6@#@oooooooo############",
"###########,etttttt9$#@>fxxd-#####o9hzxf>@@,etttttt9$###########",
"##########oeJIIIIITh-##$----#######$-;;-$#oeJIIIIITh-###########",
"##########otIWWWEEQz-#####################otIWEEEEQz-###########",
"########@@ ePEEEEEQz-o@@################@@ eIWEEEEQz-o@@########",
"#######-,6,sIEEEEEQb836,$##############-,6,sIEEEEEQb866,-#######",
"######@,nSVHEEEEEEEKVVSn,@############@,nSVHEEEEEEEKVVSn,@######",
"######@6SQWWEEEEEEEEWWQS6@############@6SQWWEEEEEEEEWWQS6@######",
"######@6VWEEEEEEQQQQEEWV,ooo#######@oo ,VWEWQQQQEEEEEEWV6@######",
"######@6VWEEEEEKbzzmTEWHset9$#####@,etesHWWHxzzbKEEEEEWV6@######",
"######@6VWEEEEWV8-$pIEEEIITh-#####oeJIIIEEQx:--8VWEEEEWV6@######",
"######@6VWEEEEWV6ootIWEEEEQz;#####otIWEEEEQz-@o6VWEEEEWV6@######",
"######@6VWEEEEWV6@otIEEEEEQz-o@@@@ eIWEEEEQz-#@6VWEEEEWV6@######",
"######@6VWEEEEWV6@otIEEEEEQb866666,sIEEEEEQz-#@6VWEEEEWV6@######",
"######@6VWEEEEWV6@otIEEEEEEKVVVVVVVHEEEEEEQz;#@6VWEEEEWV6@######",
"######@6VWEEEEWV6@otIEEEEEEEWWWWWWWWEEEEEEQz;#@6VWEEEEWV6@######",
"######@6FQQQQQQF6@otTQQQQQQQQQQQQQQQQQQQQQ)x-#@6FQQQQQQF6@######",
"######@>fxzzzzxf>@o9hzzzzzzzzzzzzzzzzzzzzzxd$#@>fxzzzzxf>@######",
"########-;--;;;-###$----;;------;;----------###$---;----$#######",
"################################################################",
"############@@@@####@@@@@@@@@@@@@@@@@@@@@@@@####@@@@############",
"###########;366,$##;36666666666666666666666>$##-,66>############",
"##########owNVSn,@owNVVVVVVVVVVVVVVVVVVVVVFf-#@,nVFf-###########",
"##########otIQQS6@otIQWWWWWWWWWWWWWWWWWWWWQx;#@6VQQx;###########",
"##########otTQQF6@otIEEEEEEEEEEEEEEEEEEEEEQz-#@6FQ)x-###########",
"##########o9hzxf>#otIWEEEEEEEEEEEEEEEEEEEEQz-#@>fxxd-###########",
"###########$----$#otIEEEEEEEEEEEEEEEEEEEEEQz-###----############",
"##################otIEEEEEEEEEEEEEEEEEEEEEQz-###################",
"##################otIEEEWWWWEEEEEEEEWWWWEEQz-###################",
"##################otIEEIFVVHEEEEEEEKVVVFIEQz-###################",
"##################otIEWFq3,sIEEEEEQb86,qFWQz-###################",
"##################otIEWV3ooePEEEEEQz-oo,VWQz-###################",
"##################otTQQF6@otTQQQQQ)x-#@6FQ)x-###################",
"##################o9hzxf>@o9hzzzzzxd-#@>fxvd-###################",
"###################$----$##$------;-####-;--####################",
"################################################################",
"################################################################",
"################################################################"
};
