/* XPM */
static char *wall_1[] = {
/* columns rows colors chars-per-pixel */
"64 64 15 1 ",
"  c #452B3A",
". c #462C3B",
"X c #472D3C",
"o c #492F3D",
"O c #543C48",
"+ c #553D49",
"@ c #563E4A",
"# c #614B54",
"$ c #B3A69E",
"% c #B5A8A0",
"& c #C0B5AA",
"* c #C1B6AB",
"= c #CFC6B8",
"- c #D0C7B9",
"; c #D1C8BA",
/* pixels */
"XXXXXXXXXXXXXXXXXXXXXXXXXXXXXXXXXXXXXXXXXXXXXXXXXXXXXXXXXXXXXXXX",
"XXXXXXXXXXXXXXXXXXXXXXXXXXXXXXXXXXXXXXXXXXXXXXXXXXXXXXXXXXXXXXXX",
"XXXX................XXXX....XXXX....XXXX....................XXXX",
"XXXo@@@@@@@@@@@@@@@@oXXo@@@@oXXo@@@@oXXo@@@@@@@@@@@@@@@@@@@@oXXX",
"XX.@$**************$@..@$**$@..@$**$@..@$******************$@.XX",
"XX.@*;------------;*@..@*;;*@..@*;;*@..@*;----------------;*@.XX",
"XX.@*-============-*@..@*;;*@  @*;;*@..@*;----------------;*@.XX",
"XX.@*-============-*@..@$**%#@@#%**$@..@$******************$@.XX",
"XX.@*-============-*@.Xo@@@#%**%#@@@oXXo@@@@@@@@@@@@@@@@@@@@oXXX",
"XX.@*-============-*@.XX.. @*;;*@ ..XXXX....................XXXX",
"XX.@*-============-*@.XX.. @*;;*@ ..XXXX....................XXXX",
"XX.@*-============-*@.Xo@@@#%**%#@@@oXXo@@@@@@@@@@@@@@@@@@@@oXXX",
"XX.@*-============-*@..@$**%#@@#%**$@..@$******************$@.XX",
"XX.@*-============-*@..@*;;*@  @*;;*@..@*;----------------;*@.XX",
"XX.@*;------------;*@..@*;;*@..@*;;*@..@*-================-*@.XX",
"XX.@$**************$@..@$**$@..@$**$@..@*-================-*@.XX",
"XXXo@@@@@@@@@@@@@@@@oXXo@@@@oXXo@@@@oX.@*-================-*@.XX",
"XXXX................XXXX....XXXX....XX.@*-================-*@.XX",
"XXXX....XXXX............XXXX........XX.@*-================-*@.XX",
"XXXo@@@@oXXo@@@@@@@@@@@@oXXo@@@@@@@@oX.@*-================-*@.XX",
"XX.@$**$@..@$**********$@..@$******$@..@*-================-*@.XX",
"XX.@*;;*@..@*;--------;*@..@*;----;*@..@*-================-*@.XX",
"XX.@*--*@..@*-========-*@..@*-====-*@..@*;----------------;*@.XX",
"XX.@*--*@..@*-========-*@..@*-====-*@..@$******************$@.XX",
"XX.@*--*@..@*-========-*@..@*-====-*@.Xo@@@@@@@@@@@@@@@@@@@@oXXX",
"XX.@*--*@..@*-========-*@..@*-====-*@.XX....................XXXX",
"XX.@*;;*@..@*;--------;*@..@*;----;*@.XXXXXX....XXXXXXXX....XXXX",
"XX.@$**$@..@$**********$@..@$******$@.XXXXXo@@@@oXXXXXXo@@@@oXXX",
"XXXo@@@@oXXo@@@@@@@@@@@@oXXo@@@@@@@@oXXXXX.@$**$@.XXXX.@$**$@.XX",
"XXXX....XXXX............XXXX........XXXXXX.@*;;*@.XXXX.@*;;*@.XX",
"XXXX............XXXX................XXXX.. @*;;*@ ..XX.@*--*@.XX",
"XXXo@@@@@@@@@@@@oXXo@@@@@@@@@@@@@@@@oXXo@@@#%**%#@@@oX.@*--*@.XX",
"XX.@$**********$@..@$**************$@..@$**%#@@#%**$@..@*--*@.XX",
"XX.@*;--------;*@..@*;------------;*@..@*;;*@  @*;;*@..@*--*@.XX",
"XX.@*-========-*@..@*-============-*@..@*;;*@..@*;;*@..@*--*@.XX",
"XX.@*-========-*@..@*-============-*@..@$**$@..@$**$@..@*--*@.XX",
"XX.@*-========-*@..@*-============-*@.Xo@@@@oXXo@@@@oX.@*--*@.XX",
"XX.@*-========-*@..@*-============-*@.XX....XXXX....XX.@*--*@.XX",
"XX.@*;--------;*@..@*-============-*@.XX............XX.@*--*@.XX",
"XX.@$**********$@..@*-============-*@.Xo@@@@@@@@@@@@oX.@*--*@.XX",
"XXXo@@@@@@@@@@@@oX.@*-============-*@..@$**********$@..@*--*@.XX",
"XXXX............XX.@*-============-*@..@*;--------;*@..@*--*@.XX",
"XXXX....XXXX....XX.@*;------------;*@..@*;--------;*@..@*;;*@.XX",
"XXXo@@@@oXXo@@@@oX.@$**************$@..@$**********$@..@$**$@.XX",
"XX.@$**$@..@$**$@.Xo@@@@@@@@@@@@@@@@oXXo@@@@@@@@@@@@oXXo@@@@oXXX",
"XX.@*;;*@..@*;;*@.XX................XXXX............XXXX....XXXX",
"XX.@*;;*@  @*;;*@.XX........XXXX................XXXX........XXXX",
"XX.@$**%#@@#%**$@.Xo@@@@@@@@oXXo@@@@@@@@@@@@@@@@oXXo@@@@@@@@oXXX",
"XXXo@@@#%**%#@@@oX.@$******$@..@$**************$@..@$******$@.XX",
"XXXX.. @*;;*@ ..XX.@*;----;*@..@*;------------;*@..@*;----;*@.XX",
"XXXX.. @*;;*@ ..XX.@*-====-*@..@*-============-*@..@*-====-*@.XX",
"XXXo@@@#%**%#@@@oX.@*-====-*@..@*-============-*@..@*-====-*@.XX",
"XX.@$**%#@@#%**$@..@*-====-*@..@*-============-*@..@*-====-*@.XX",
"XX.@*;;*@  @*;;*@..@*-====-*@..@*-============-*@..@*-====-*@.XX",
"XX.@*;;*@  @*;;*@..@*-====-*@..@*-============-*@..@*-====-*@.XX",
"XX.@$**%#@@#%**$@..@*-====-*@..@*-============-*@..@*-====-*@.XX",
"XXXo@@@#%**%#@@@oX.@*-====-*@..@*-============-*@..@*-====-*@.XX",
"XXXX.. @*;;*@ ..XX.@*-====-*@..@*-============-*@..@*-====-*@.XX",
"XXXXXX.@*;;*@.XXXX.@*;----;*@..@*;------------;*@..@*;----;*@.XX",
"XXXXXX.@$**$@.XXXX.@$******$@..@$**************$@..@$******$@.XX",
"XXXXXXXo@@@@oXXXXXXo@@@@@@@@oXXo@@@@@@@@@@@@@@@@oXXo@@@@@@@@oXXX",
"XXXXXXXX....XXXXXXXX........XXXX................XXXX........XXXX",
"XXXXXXXXXXXXXXXXXXXXXXXXXXXXXXXXXXXXXXXXXXXXXXXXXXXXXXXXXXXXXXXX",
"XXXXXXXXXXXXXXXXXXXXXXXXXXXXXXXXXXXXXXXXXXXXXXXXXXXXXXXXXXXXXXXX"
};
