/* XPM */
static char *wall[] = {
/* columns rows colors chars-per-pixel */
"64 64 11 1 ",
"  c #462C3B",
". c #472D3C",
"X c #492F3D",
"o c #543C48",
"O c #563E4A",
"+ c #B3A69E",
"@ c #C0B5AA",
"# c #C1B6AB",
"$ c #CFC6B8",
"% c #D0C7B9",
"& c #D1C8BA",
/* pixels */
"................................................................",
"................................................................",
"....                    ....        ....                    ....",
"...XOOOOOOOOOOOOOOOOOOOOX..XOOOOOOOOX..XOOOOOOOOOOOOOOOOOOOOX...",
".. O+##################+O  O+######+O  O+##################+O ..",
".. O#&%%%%%%%%%%%%%%%%&#O  O#&%%%%&#O  O#&%%%%%%%%%%%%%%%%&#O ..",
".. O#%$$$$$$$$$$$$$$$$%#O  O#%$$$$%#O  O#%$$$$$$$$$$$$$$$$%#O ..",
".. O#%$$$$$$$$$$$$$$$$%#O  O#%$$$$%#O  O#%$$$$$$$$$$$$$$$$%#O ..",
".. O#%$$$$$$$$$$$$$$$$%#O  O#%$$$$%#O  O#%$$$$$$$$$$$$$$$$%#O ..",
".. O#%$$$$$$$$$$$$$$$$%#O  O#%$$$$%#O  O#%$$$$$$$$$$$$$$$$%#O ..",
".. O#&%%%%%%%%%%%%%%%%&#O  O#&%%%%&#O  O#&%%%%%%%%%%%%%%%%&#O ..",
".. O+##################+O  O+######+O  O+##################+O ..",
"...XOOOOOOOOOOOOOOOOOOOOX..XOOOOOOOOX..XOOOOOOOOOOOOOOOOOOOOX...",
"....                    ....        ....                    ....",
"....        ....                                ....        ....",
"...XOOOOOOOOX..XOOOOOOOOOOOOOOOOOOOOOOOOOOOOOOOOX..XOOOOOOOOX...",
".. O+######+O  O+##############################+O  O+######+O ..",
".. O#&%%%%&#O  O#&%%%%%%%%%%%%%%%%%%%%%%%%%%%%&#O  O#&%%%%&#O ..",
".. O#%$$$$%#O  O#%$$$$$$$$$$$$$$$$$$$$$$$$$$$$%#O  O#%$$$$%#O ..",
".. O#%$$$$%#O  O#%$$$$$$$$$$$$$$$$$$$$$$$$$$$$%#O  O#%$$$$%#O ..",
".. O#%$$$$%#O  O#%$$$$$$$$$$$$$$$$$$$$$$$$$$$$%#O  O#%$$$$%#O ..",
".. O#%$$$$%#O  O#%$$$$$$$$$$$$$$$$$$$$$$$$$$$$%#O  O#%$$$$%#O ..",
".. O#&%%%%&#O  O#&%%%%%%%%%%%%%%%%%%%%%%%%%%%%&#O  O#&%%%%&#O ..",
".. O+######+O  O+##############################+O  O+######+O ..",
"...XOOOOOOOOX..XOOOOOOOOOOOOOOOOOOOOOOOOOOOOOOOOX..XOOOOOOOOX...",
"....        ....                                ....        ....",
"....                    ....        ....                    ....",
"...XOOOOOOOOOOOOOOOOOOOOX..XOOOOOOOOX..XOOOOOOOOOOOOOOOOOOOOX...",
".. O+##################+O  O+######+O  O+##################+O ..",
".. O#&%%%%%%%%%%%%%%%%&#O  O#&%%%%&#O  O#&%%%%%%%%%%%%%%%%&#O ..",
".. O#%$$$$$$$$$$$$$$$$%#O  O#%$$$$%#O  O#%$$$$$$$$$$$$$$$$%#O ..",
".. O#%$$$$$$$$$$$$$$$$%#O  O#%$$$$%#O  O#%$$$$$$$$$$$$$$$$%#O ..",
".. O#%$$$$$$$$$$$$$$$$%#O  O#%$$$$%#O  O#%$$$$$$$$$$$$$$$$%#O ..",
".. O#%$$$$$$$$$$$$$$$$%#O  O#%$$$$%#O  O#%$$$$$$$$$$$$$$$$%#O ..",
".. O#&%%%%%%%%%%%%%%%%&#O  O#&%%%%&#O  O#&%%%%%%%%%%%%%%%%&#O ..",
".. O+##################+O  O+######+O  O+##################+O ..",
"...XOOOOOOOOOOOOOOOOOOOOX..XOOOOOOOOX..XOOOOOOOOOOOOOOOOOOOOX...",
"....                    ....        ....                    ....",
"....        ....                                ....        ....",
"...XOOOOOOOOX..XOOOOOOOOOOOOOOOOOOOOOOOOOOOOOOOOX..XOOOOOOOOX...",
".. O+######+O  O+##############################+O  O+######+O ..",
".. O#&%%%%&#O  O#&%%%%%%%%%%%%%%%%%%%%%%%%%%%%&#O  O#&%%%%&#O ..",
".. O#%$$$$%#O  O#%$$$$$$$$$$$$$$$$$$$$$$$$$$$$%#O  O#%$$$$%#O ..",
".. O#%$$$$%#O  O#%$$$$$$$$$$$$$$$$$$$$$$$$$$$$%#O  O#%$$$$%#O ..",
".. O#%$$$$%#O  O#%$$$$$$$$$$$$$$$$$$$$$$$$$$$$%#O  O#%$$$$%#O ..",
".. O#%$$$$%#O  O#%$$$$$$$$$$$$$$$$$$$$$$$$$$$$%#O  O#%$$$$%#O ..",
".. O#&%%%%&#O  O#&%%%%%%%%%%%%%%%%%%%%%%%%%%%%&#O  O#&%%%%&#O ..",
".. O+######+O  O+##############################+O  O+######+O ..",
"...XOOOOOOOOX..XOOOOOOOOOOOOOOOOOOOOOOOOOOOOOOOOX..XOOOOOOOOX...",
"....        ....                                ....        ....",
"....                    ....        ....                    ....",
"...XOOOOOOOOOOOOOOOOOOOOX..XOOOOOOOOX..XOOOOOOOOOOOOOOOOOOOOX...",
".. O+##################+O  O+######+O  O+##################+O ..",
".. O#&%%%%%%%%%%%%%%%%&#O  O#&%%%%&#O  O#&%%%%%%%%%%%%%%%%&#O ..",
".. O#%$$$$$$$$$$$$$$$$%#O  O#%$$$$%#O  O#%$$$$$$$$$$$$$$$$%#O ..",
".. O#%$$$$$$$$$$$$$$$$%#O  O#%$$$$%#O  O#%$$$$$$$$$$$$$$$$%#O ..",
".. O#%$$$$$$$$$$$$$$$$%#O  O#%$$$$%#O  O#%$$$$$$$$$$$$$$$$%#O ..",
".. O#%$$$$$$$$$$$$$$$$%#O  O#%$$$$%#O  O#%$$$$$$$$$$$$$$$$%#O ..",
".. O#&%%%%%%%%%%%%%%%%&#O  O#&%%%%&#O  O#&%%%%%%%%%%%%%%%%&#O ..",
".. O+##################+O  O+######+O  O+##################+O ..",
"...XOOOOOOOOOOOOOOOOOOOOX..XOOOOOOOOX..XOOOOOOOOOOOOOOOOOOOOX...",
"....                    ....        ....                    ....",
"................................................................",
"................................................................"
};
