/* XPM */
static char *wall_2[] = {
/* columns rows colors chars-per-pixel */
"64 64 18 1 ",
"  c #452B3A",
". c #462C3B",
"X c #472D3C",
"o c #492F3D",
"O c #543C48",
"+ c #553D49",
"@ c #563E4A",
"# c #614B54",
"$ c #634D56",
"% c #B3A69E",
"& c #B5A8A0",
"* c #C0B5AA",
"= c #C1B6AB",
"- c #C2B7AC",
"; c #CDC4B7",
": c #CFC6B8",
"> c #D0C7B9",
", c #D1C8BA",
/* pixels */
"XXXXXXXXXXXXXXXXXXXXXXXXXXXXXXXXXXXXXXXXXXXXXXXXXXXXXXXXXXXXXXXX",
"XXXXXXXXXXXXXXXXXXXXXXXXXXXXXXXXXXXXXXXXXXXXXXXXXXXXXXXXXXXXXXXX",
"XXXX................XXXX....XXXX....XXXX....................XXXX",
"XXXo@@@@@@@@@@@@@@@@oXXo@@@@oXXo@@@@oXXo@@@@@@@@@@@@@@@@@@@@oXXX",
"XX.@%==============%@..@%==%@..@%==%@..@%==================%@.XX",
"XX.@=,>>>>>>>>>>>>,=@..@=,,=@..@=,,=@..@=,>>>>>>>>>>>>>>>>,=@.XX",
"XX.@=>::>>>>>>>>>>,=@..@=,,=@..@=,,=@..@=,>>>>>>>>>>>>>>>>,=@.XX",
"XX.@=>:;-==========%@..@%==%@..@%==%@..@%==================%@.XX",
"XX.@=>>-$@@@@@@@@@@@oXXo@@@@oXXo@@@@oXXo@@@@@@@@@@@@@@@@@@@@oXXX",
"XX.@=>>=@ ..........XXXX....XXXX....XXXX....................XXXX",
"XX.@=>>=@.XXXXXX................................XXXXXXXX....XXXX",
"XX.@=>>=@.XXXXXo@@@@@@@@@@@@@@@@@@@@@@@@@@@@@@@@oXXXXXXo@@@@oXXX",
"XX.@=>>=@.XXXX.@%==============================%@.XXXX.@%==%@.XX",
"XX.@=>>=@.XXXX.@=,>>>>>>>>>>>>>>>>>>>>>>>>>>>>,=@.XXXX.@=,,=@.XX",
"XX.@=,,=@.XX.. @=>::>>>>>>>>>>>>>>>>>>>>>>>>::>=@ ..XX.@=>>=@.XX",
"XX.@%==%@.Xo@@@$->:;-======================-;:>-$@@@oX.@=>>=@.XX",
"XXXo@@@@oX.@%==-;:>-$@@@@@@@@@@@@@@@@@@@@@@$->:;-==%@..@=>>=@.XX",
"XXXX....XX.@=,>>::>=@ .................... @=>::>>,=@..@=>>=@.XX",
"XXXX....XX.@=>::>>,=@.XX....XXXXXXXX....XX.@=,>>::>=@..@=>>=@.XX",
"XXXo@@@@oX.@=>:;-==%@.Xo@@@@oXXXXXXo@@@@oX.@%==-;:>=@..@=>>=@.XX",
"XX.@%==%@..@=>>-$@@@oX.@%==%@.XXXX.@%==%@.Xo@@@$->>=@..@=>>=@.XX",
"XX.@=,,=@..@=>>=@ ..XX.@=,,=@.XXXX.@=,,=@.XX.. @=>>=@..@=>>=@.XX",
"XX.@=>>=@..@=>>=@.XXXX.@=>>=@.XXXX.@=>>=@.XXXX.@=>>=@..@=,,=@.XX",
"XX.@=>>=@..@=>>=@.XXXX.@=>>=@.XXXX.@=>>=@.XXXX.@=>>=@..@%==%@.XX",
"XX.@=>>=@..@=>>=@.XXXX.@=>>=@.XXXX.@=>>=@.XXXX.@=>>=@.Xo@@@@oXXX",
"XX.@=>>=@..@=>>=@.XXXX.@=>>=@.XXXX.@=>>=@.XXXX.@=>>=@.XX....XXXX",
"XX.@=,,=@..@=>>=@.XXXX.@=>>=@.XXXX.@=>>=@.XXXX.@=>>=@.XX....XXXX",
"XX.@%==%@..@=>>=@.XXXX.@=>>=@.XXXX.@=>>=@.XXXX.@=>>=@.Xo@@@@oXXX",
"XXXo@@@@oX.@=>>=@.XXXX.@=>>=@.XXXX.@=>>=@.XXXX.@=>>=@..@%==%@.XX",
"XXXX....XX.@=>>=@.XXXX.@=>>=@.XXXX.@=>>=@.XXXX.@=>>=@..@=,,=@.XX",
"XXXX....XX.@=>>=@.XXXX.@=>>=@.XXXX.@=>>=@.XXXX.@=>>=@..@=>>=@.XX",
"XXXo@@@@oX.@=>>=@.XXXX.@=>>=@.XXXX.@=>>=@.XXXX.@=>>=@..@=>>=@.XX",
"XX.@%==%@..@=>>=@.XXXX.@=>>=@.XXXX.@=>>=@.XXXX.@=>>=@..@=>>=@.XX",
"XX.@=,,=@..@=>>=@.XXXX.@=>>=@.XXXX.@=>>=@.XXXX.@=>>=@..@=>>=@.XX",
"XX.@=>>=@..@=>>=@.XXXX.@=>>=@.XXXX.@=>>=@.XXXX.@=>>=@..@=>>=@.XX",
"XX.@=>>=@..@=>>=@.XXXX.@=>>=@.XXXX.@=>>=@.XXXX.@=>>=@..@=>>=@.XX",
"XX.@=>>=@..@=>>=@.XXXX.@=>>=@.XXXX.@=>>=@.XXXX.@=>>=@..@=>>=@.XX",
"XX.@=>>=@..@=>>=@.XXXX.@=>>=@.XXXX.@=>>=@.XXXX.@=>>=@..@=>>=@.XX",
"XX.@=,,=@..@=>>=@.XXXX.@=>>=@.XXXX.@=>>=@.XXXX.@=>>=@..@=>>=@.XX",
"XX.@%==%@..@=>>=@.XXXX.@=>>=@.XXXX.@=>>=@.XXXX.@=>>=@..@=>>=@.XX",
"XXXo@@@@oX.@=>>=@.XXXX.@=>>=@.XXXX.@=>>=@.XXXX.@=>>=@..@=>>=@.XX",
"XXXX....XX.@=>>=@.XXXX.@=>>=@.XXXX.@=>>=@.XXXX.@=>>=@..@=>>=@.XX",
"XXXX....XX.@=>>=@.XXXX.@=,,=@.XXXX.@=,,=@.XXXX.@=>>=@..@=,,=@.XX",
"XXXo@@@@oX.@=>>=@.XXXX.@%==%@.XXXX.@%==%@.XXXX.@=>>=@..@%==%@.XX",
"XX.@%==%@..@=>>=@.XXXXXo@@@@oXXXXXXo@@@@oXXXXX.@=>>=@.Xo@@@@oXXX",
"XX.@=,,=@..@=>>=@.XXXXXX....XXXXXXXX....XXXXXX.@=>>=@.XX....XXXX",
"XX.@=,,=@..@=>>=@ ............................ @=>>=@.XX....XXXX",
"XX.@%==%@..@=>>-$@@@@@@@@@@@@@@@@@@@@@@@@@@@@@@$->>=@.Xo@@@@oXXX",
"XXXo@@@@oX.@=>:;-==============================-;:>=@..@%==%@.XX",
"XXXX....XX.@=>::>>>>>>>>>>>>>>>>>>>>>>>>>>>>>>>>::>=@..@=,,=@.XX",
"XXXX....XX.@=,>>>>>>>>>>>>>>>>>>>>>>>>>>>>>>>>>>>>,=@..@=>>=@.XX",
"XXXo@@@@oX.@%======================================%@..@=>>=@.XX",
"XX.@%==%@.Xo@@@@@@@@@@@@@@@@@@@@@@@@@@@@@@@@@@@@@@@@oX.@=>>=@.XX",
"XX.@=,,=@.XX........................................XX.@=>>=@.XX",
"XX.@=,,=@ ..XXXXXXXX........XXXX................XXXX.. @=>>=@.XX",
"XX.@%==&#@@@oXXXXXXo@@@@@@@@oXXo@@@@@@@@@@@@@@@@oXXo@@@$->>=@.XX",
"XXXo@@@#&==%@.XXXX.@%======%@..@%==============%@..@%==-;:>=@.XX",
"XXXX.. @=,,=@.XXXX.@=,>>>>,=@..@=,>>>>>>>>>>>>,=@..@=,>>::>=@.XX",
"XXXXXX.@=,,=@.XXXX.@=,>>>>,=@..@=,>>>>>>>>>>>>,=@..@=,>>>>,=@.XX",
"XXXXXX.@%==%@.XXXX.@%======%@..@%==============%@..@%======%@.XX",
"XXXXXXXo@@@@oXXXXXXo@@@@@@@@oXXo@@@@@@@@@@@@@@@@oXXo@@@@@@@@oXXX",
"XXXXXXXX....XXXXXXXX........XXXX................XXXX........XXXX",
"XXXXXXXXXXXXXXXXXXXXXXXXXXXXXXXXXXXXXXXXXXXXXXXXXXXXXXXXXXXXXXXX",
"XXXXXXXXXXXXXXXXXXXXXXXXXXXXXXXXXXXXXXXXXXXXXXXXXXXXXXXXXXXXXXXX"
};
